<svg id="visual" viewBox="0 0 900 600" width="900" height="600" xmlns="http://www.w3.org/2000/svg" xmlns:xlink="http://www.w3.org/1999/xlink" version="1.1"><g stroke-width="1" stroke-linejoin="bevel"><path d="M487 268L565 214L494 211Z" fill="#40475a" stroke="#40475a"></path><path d="M565 214L573 198L494 211Z" fill="#3c4455" stroke="#3c4455"></path><path d="M487 268L611 253L565 214Z" fill="#333947" stroke="#333947"></path><path d="M565 214L627 240L573 198Z" fill="#434b5f" stroke="#434b5f"></path><path d="M611 253L627 240L565 214Z" fill="#3c4455" stroke="#3c4455"></path><path d="M491 357L627 275L611 253Z" fill="#333947" stroke="#333947"></path><path d="M611 253L627 275L627 240Z" fill="#3c4455" stroke="#3c4455"></path><path d="M487 268L491 357L611 253Z" fill="#2a2f39" stroke="#2a2f39"></path><path d="M702 190L662 172L627 240Z" fill="#2d323e" stroke="#2d323e"></path><path d="M627 240L662 172L573 198Z" fill="#394050" stroke="#394050"></path><path d="M500 74L459 96L494 211Z" fill="#394050" stroke="#394050"></path><path d="M662 172L633 125L573 198Z" fill="#2a2f39" stroke="#2a2f39"></path><path d="M500 74L494 211L573 198Z" fill="#363d4c" stroke="#363d4c"></path><path d="M340 279L405 367L487 268Z" fill="#2d323e" stroke="#2d323e"></path><path d="M487 268L405 367L491 357Z" fill="#303642" stroke="#303642"></path><path d="M633 125L500 74L573 198Z" fill="#303642" stroke="#303642"></path><path d="M349 246L487 268L494 211Z" fill="#2d323e" stroke="#2d323e"></path><path d="M569 414L583 410L491 357Z" fill="#363d4c" stroke="#363d4c"></path><path d="M491 357L583 410L627 275Z" fill="#303642" stroke="#303642"></path><path d="M713 294L702 190L627 240Z" fill="#303642" stroke="#303642"></path><path d="M524 469L569 414L491 357Z" fill="#394050" stroke="#394050"></path><path d="M662 172L660 127L633 125Z" fill="#2d323e" stroke="#2d323e"></path><path d="M633 125L545 0L500 74Z" fill="#40475a" stroke="#40475a"></path><path d="M351 165L349 246L494 211Z" fill="#333947" stroke="#333947"></path><path d="M713 294L627 240L627 275Z" fill="#2d323e" stroke="#2d323e"></path><path d="M662 172L690 121L660 127Z" fill="#2d323e" stroke="#2d323e"></path><path d="M349 246L340 279L487 268Z" fill="#363d4c" stroke="#363d4c"></path><path d="M652 407L713 294L627 275Z" fill="#394050" stroke="#394050"></path><path d="M459 96L351 165L494 211Z" fill="#2d323e" stroke="#2d323e"></path><path d="M269 188L311 316L340 279Z" fill="#3c4455" stroke="#3c4455"></path><path d="M340 279L375 375L405 367Z" fill="#363d4c" stroke="#363d4c"></path><path d="M405 473L524 469L491 357Z" fill="#394050" stroke="#394050"></path><path d="M702 190L690 121L662 172Z" fill="#394050" stroke="#394050"></path><path d="M660 127L654 25L633 125Z" fill="#333947" stroke="#333947"></path><path d="M566 483L652 407L583 410Z" fill="#2d323e" stroke="#2d323e"></path><path d="M583 410L652 407L627 275Z" fill="#363d4c" stroke="#363d4c"></path><path d="M349 107L337 143L351 165Z" fill="#272b34" stroke="#272b34"></path><path d="M351 165L269 188L349 246Z" fill="#303642" stroke="#303642"></path><path d="M349 107L351 165L459 96Z" fill="#2a2f39" stroke="#2a2f39"></path><path d="M405 473L491 357L405 367Z" fill="#40475a" stroke="#40475a"></path><path d="M569 414L566 483L583 410Z" fill="#303642" stroke="#303642"></path><path d="M390 46L349 107L459 96Z" fill="#3c4455" stroke="#3c4455"></path><path d="M269 188L340 279L349 246Z" fill="#394050" stroke="#394050"></path><path d="M340 279L311 316L375 375Z" fill="#333947" stroke="#333947"></path><path d="M766 321L766 257L713 294Z" fill="#272b34" stroke="#272b34"></path><path d="M713 294L766 257L702 190Z" fill="#40475a" stroke="#40475a"></path><path d="M769 181L710 88L690 121Z" fill="#363d4c" stroke="#363d4c"></path><path d="M769 181L690 121L702 190Z" fill="#40475a" stroke="#40475a"></path><path d="M690 121L710 88L660 127Z" fill="#40475a" stroke="#40475a"></path><path d="M477 0L390 46L459 96Z" fill="#242830" stroke="#242830"></path><path d="M477 0L459 96L500 74Z" fill="#303642" stroke="#303642"></path><path d="M524 469L566 483L569 414Z" fill="#272b34" stroke="#272b34"></path><path d="M691 490L734 376L652 407Z" fill="#394050" stroke="#394050"></path><path d="M652 407L734 376L713 294Z" fill="#40475a" stroke="#40475a"></path><path d="M654 25L545 0L633 125Z" fill="#2d323e" stroke="#2d323e"></path><path d="M545 0L500 0L500 74Z" fill="#242830" stroke="#242830"></path><path d="M766 257L769 181L702 190Z" fill="#363d4c" stroke="#363d4c"></path><path d="M500 0L477 0L500 74Z" fill="#303642" stroke="#303642"></path><path d="M734 376L766 321L713 294Z" fill="#3c4455" stroke="#3c4455"></path><path d="M766 257L775 186L769 181Z" fill="#394050" stroke="#394050"></path><path d="M710 88L654 25L660 127Z" fill="#2d323e" stroke="#2d323e"></path><path d="M804 0L712 0L710 88Z" fill="#3c4455" stroke="#3c4455"></path><path d="M900 210L775 186L766 257Z" fill="#2d323e" stroke="#2d323e"></path><path d="M320 502L405 473L375 375Z" fill="#3c4455" stroke="#3c4455"></path><path d="M375 375L405 473L405 367Z" fill="#394050" stroke="#394050"></path><path d="M524 469L572 545L566 483Z" fill="#2a2f39" stroke="#2a2f39"></path><path d="M278 55L269 188L337 143Z" fill="#394050" stroke="#394050"></path><path d="M337 143L269 188L351 165Z" fill="#333947" stroke="#333947"></path><path d="M278 55L337 143L349 107Z" fill="#2d323e" stroke="#2d323e"></path><path d="M405 473L472 510L524 469Z" fill="#2a2f39" stroke="#2a2f39"></path><path d="M361 0L325 55L390 46Z" fill="#272b34" stroke="#272b34"></path><path d="M390 46L325 55L349 107Z" fill="#2d323e" stroke="#2d323e"></path><path d="M572 545L691 490L566 483Z" fill="#242830" stroke="#242830"></path><path d="M566 483L691 490L652 407Z" fill="#3c4455" stroke="#3c4455"></path><path d="M734 376L837 353L766 321Z" fill="#2d323e" stroke="#2d323e"></path><path d="M477 0L361 0L390 46Z" fill="#434b5f" stroke="#434b5f"></path><path d="M472 510L572 545L524 469Z" fill="#242830" stroke="#242830"></path><path d="M196 281L242 349L311 316Z" fill="#2d323e" stroke="#2d323e"></path><path d="M311 316L267 402L375 375Z" fill="#40475a" stroke="#40475a"></path><path d="M242 349L267 402L311 316Z" fill="#3c4455" stroke="#3c4455"></path><path d="M416 600L500 574L472 510Z" fill="#303642" stroke="#303642"></path><path d="M710 88L712 0L654 25Z" fill="#40475a" stroke="#40475a"></path><path d="M654 25L712 0L545 0Z" fill="#303642" stroke="#303642"></path><path d="M820 22L710 88L769 181Z" fill="#394050" stroke="#394050"></path><path d="M691 490L772 430L734 376Z" fill="#394050" stroke="#394050"></path><path d="M766 321L837 353L766 257Z" fill="#394050" stroke="#394050"></path><path d="M361 0L341 0L325 55Z" fill="#3c4455" stroke="#3c4455"></path><path d="M325 55L278 55L349 107Z" fill="#2a2f39" stroke="#2a2f39"></path><path d="M341 0L278 55L325 55Z" fill="#333947" stroke="#333947"></path><path d="M269 188L196 281L311 316Z" fill="#2a2f39" stroke="#2a2f39"></path><path d="M772 430L837 353L734 376Z" fill="#333947" stroke="#333947"></path><path d="M900 124L820 22L769 181Z" fill="#333947" stroke="#333947"></path><path d="M416 600L472 510L405 473Z" fill="#272b34" stroke="#272b34"></path><path d="M472 510L500 574L572 545Z" fill="#363d4c" stroke="#363d4c"></path><path d="M267 402L320 502L375 375Z" fill="#40475a" stroke="#40475a"></path><path d="M177 203L196 281L269 188Z" fill="#363d4c" stroke="#363d4c"></path><path d="M242 349L214 404L267 402Z" fill="#434b5f" stroke="#434b5f"></path><path d="M267 402L249 494L320 502Z" fill="#272b34" stroke="#272b34"></path><path d="M572 545L687 543L691 490Z" fill="#2d323e" stroke="#2d323e"></path><path d="M691 490L755 497L772 430Z" fill="#242830" stroke="#242830"></path><path d="M772 430L853 383L837 353Z" fill="#242830" stroke="#242830"></path><path d="M633 600L687 543L572 545Z" fill="#303642" stroke="#303642"></path><path d="M687 543L755 497L691 490Z" fill="#333947" stroke="#333947"></path><path d="M196 281L198 352L242 349Z" fill="#272b34" stroke="#272b34"></path><path d="M775 529L790 480L755 497Z" fill="#2a2f39" stroke="#2a2f39"></path><path d="M755 497L790 480L772 430Z" fill="#40475a" stroke="#40475a"></path><path d="M198 352L214 404L242 349Z" fill="#363d4c" stroke="#363d4c"></path><path d="M790 480L853 383L772 430Z" fill="#272b34" stroke="#272b34"></path><path d="M900 124L769 181L775 186Z" fill="#303642" stroke="#303642"></path><path d="M180 89L177 203L269 188Z" fill="#363d4c" stroke="#363d4c"></path><path d="M98 321L104 345L198 352Z" fill="#333947" stroke="#333947"></path><path d="M416 600L531 600L500 574Z" fill="#40475a" stroke="#40475a"></path><path d="M500 574L531 600L572 545Z" fill="#272b34" stroke="#272b34"></path><path d="M341 0L242 29L278 55Z" fill="#2d323e" stroke="#2d323e"></path><path d="M278 55L180 89L269 188Z" fill="#434b5f" stroke="#434b5f"></path><path d="M105 144L167 210L177 203Z" fill="#2a2f39" stroke="#2a2f39"></path><path d="M177 203L167 210L196 281Z" fill="#394050" stroke="#394050"></path><path d="M900 210L766 257L837 353Z" fill="#2a2f39" stroke="#2a2f39"></path><path d="M820 22L804 0L710 88Z" fill="#2a2f39" stroke="#2a2f39"></path><path d="M531 600L633 600L572 545Z" fill="#272b34" stroke="#272b34"></path><path d="M687 543L775 529L755 497Z" fill="#2a2f39" stroke="#2a2f39"></path><path d="M345 600L416 600L405 473Z" fill="#394050" stroke="#394050"></path><path d="M345 600L405 473L320 502Z" fill="#272b34" stroke="#272b34"></path><path d="M900 344L900 210L837 353Z" fill="#40475a" stroke="#40475a"></path><path d="M214 404L249 494L267 402Z" fill="#2d323e" stroke="#2d323e"></path><path d="M900 360L837 353L853 383Z" fill="#303642" stroke="#303642"></path><path d="M771 600L775 529L687 543Z" fill="#2d323e" stroke="#2d323e"></path><path d="M900 0L816 0L820 22Z" fill="#394050" stroke="#394050"></path><path d="M820 22L816 0L804 0Z" fill="#242830" stroke="#242830"></path><path d="M242 29L180 89L278 55Z" fill="#394050" stroke="#394050"></path><path d="M900 360L853 383L900 427Z" fill="#363d4c" stroke="#363d4c"></path><path d="M900 360L900 344L837 353Z" fill="#2d323e" stroke="#2d323e"></path><path d="M341 0L230 0L242 29Z" fill="#242830" stroke="#242830"></path><path d="M242 29L155 0L180 89Z" fill="#2d323e" stroke="#2d323e"></path><path d="M900 427L853 383L790 480Z" fill="#394050" stroke="#394050"></path><path d="M900 210L900 124L775 186Z" fill="#333947" stroke="#333947"></path><path d="M633 600L691 600L687 543Z" fill="#2d323e" stroke="#2d323e"></path><path d="M334 600L345 600L320 502Z" fill="#2d323e" stroke="#2d323e"></path><path d="M214 404L214 493L249 494Z" fill="#40475a" stroke="#40475a"></path><path d="M249 494L334 600L320 502Z" fill="#333947" stroke="#333947"></path><path d="M115 422L214 493L214 404Z" fill="#363d4c" stroke="#363d4c"></path><path d="M115 422L214 404L198 352Z" fill="#363d4c" stroke="#363d4c"></path><path d="M202 570L334 600L249 494Z" fill="#40475a" stroke="#40475a"></path><path d="M900 469L790 480L775 529Z" fill="#394050" stroke="#394050"></path><path d="M900 469L900 427L790 480Z" fill="#333947" stroke="#333947"></path><path d="M691 600L771 600L687 543Z" fill="#2d323e" stroke="#2d323e"></path><path d="M839 600L900 469L775 529Z" fill="#303642" stroke="#303642"></path><path d="M180 89L105 144L177 203Z" fill="#363d4c" stroke="#363d4c"></path><path d="M98 321L198 352L196 281Z" fill="#242830" stroke="#242830"></path><path d="M85 108L105 144L180 89Z" fill="#303642" stroke="#303642"></path><path d="M98 321L196 281L167 210Z" fill="#3c4455" stroke="#3c4455"></path><path d="M35 168L98 321L167 210Z" fill="#303642" stroke="#303642"></path><path d="M900 124L900 0L820 22Z" fill="#3c4455" stroke="#3c4455"></path><path d="M230 0L155 0L242 29Z" fill="#3c4455" stroke="#3c4455"></path><path d="M90 400L115 422L104 345Z" fill="#434b5f" stroke="#434b5f"></path><path d="M104 345L115 422L198 352Z" fill="#303642" stroke="#303642"></path><path d="M214 493L202 570L249 494Z" fill="#272b34" stroke="#272b34"></path><path d="M73 485L202 570L214 493Z" fill="#2a2f39" stroke="#2a2f39"></path><path d="M106 20L85 108L180 89Z" fill="#363d4c" stroke="#363d4c"></path><path d="M105 144L35 168L167 210Z" fill="#272b34" stroke="#272b34"></path><path d="M67 370L90 400L104 345Z" fill="#303642" stroke="#303642"></path><path d="M127 600L182 600L202 570Z" fill="#2a2f39" stroke="#2a2f39"></path><path d="M67 370L104 345L98 321Z" fill="#394050" stroke="#394050"></path><path d="M771 600L839 600L775 529Z" fill="#3c4455" stroke="#3c4455"></path><path d="M182 600L211 600L202 570Z" fill="#2d323e" stroke="#2d323e"></path><path d="M202 570L211 600L334 600Z" fill="#40475a" stroke="#40475a"></path><path d="M155 0L106 20L180 89Z" fill="#272b34" stroke="#272b34"></path><path d="M0 322L67 370L98 321Z" fill="#363d4c" stroke="#363d4c"></path><path d="M73 485L214 493L115 422Z" fill="#434b5f" stroke="#434b5f"></path><path d="M73 485L115 422L90 400Z" fill="#303642" stroke="#303642"></path><path d="M0 179L35 168L0 154Z" fill="#303642" stroke="#303642"></path><path d="M85 108L35 168L105 144Z" fill="#242830" stroke="#242830"></path><path d="M155 0L83 0L106 20Z" fill="#394050" stroke="#394050"></path><path d="M106 20L0 65L85 108Z" fill="#303642" stroke="#303642"></path><path d="M839 600L900 600L900 469Z" fill="#434b5f" stroke="#434b5f"></path><path d="M0 397L90 400L67 370Z" fill="#333947" stroke="#333947"></path><path d="M0 397L73 485L90 400Z" fill="#2a2f39" stroke="#2a2f39"></path><path d="M0 154L35 168L85 108Z" fill="#394050" stroke="#394050"></path><path d="M35 168L0 322L98 321Z" fill="#272b34" stroke="#272b34"></path><path d="M0 179L0 322L35 168Z" fill="#333947" stroke="#333947"></path><path d="M0 322L0 332L67 370Z" fill="#363d4c" stroke="#363d4c"></path><path d="M0 65L0 154L85 108Z" fill="#2a2f39" stroke="#2a2f39"></path><path d="M73 485L127 600L202 570Z" fill="#2d323e" stroke="#2d323e"></path><path d="M20 583L127 600L73 485Z" fill="#394050" stroke="#394050"></path><path d="M0 332L0 397L67 370Z" fill="#394050" stroke="#394050"></path><path d="M83 0L0 65L106 20Z" fill="#333947" stroke="#333947"></path><path d="M0 397L0 483L73 485Z" fill="#434b5f" stroke="#434b5f"></path><path d="M83 0L0 0L0 65Z" fill="#242830" stroke="#242830"></path><path d="M0 483L20 583L73 485Z" fill="#434b5f" stroke="#434b5f"></path><path d="M0 483L0 600L20 583Z" fill="#40475a" stroke="#40475a"></path><path d="M20 583L0 600L127 600Z" fill="#3c4455" stroke="#3c4455"></path></g></svg>